<svg width="45" height="45" viewBox="0 0 45 45" fill="none" xmlns="http://www.w3.org/2000/svg">
<rect x="44.3798" y="44.3794" width="43.931" height="43.931" rx="21.9655" transform="rotate(-180 44.3798 44.3794)" fill="#0091BF" stroke="#0091BF" stroke-width="0.896552"/>
<path d="M13.2725 24.1309L16.453 27.3443C16.5294 27.4213 16.6203 27.4825 16.7205 27.5242C16.8206 27.5659 16.928 27.5874 17.0365 27.5874C17.145 27.5874 17.2524 27.5659 17.3526 27.5242C17.4527 27.4825 17.5436 27.4213 17.62 27.3443C17.7731 27.1903 17.859 26.982 17.859 26.7649C17.859 26.5478 17.7731 26.3395 17.62 26.1855L14.6943 23.2351L31.4516 23.2351C31.6696 23.2351 31.8786 23.1485 32.0327 22.9944C32.1869 22.8403 32.2734 22.6312 32.2734 22.4133C32.2734 22.1953 32.1869 21.9863 32.0327 21.8321C31.8786 21.678 31.6696 21.5914 31.4516 21.5914L14.645 21.5914L17.62 18.6246C17.6971 18.5482 17.7582 18.4573 17.7999 18.3571C17.8417 18.257 17.8631 18.1496 17.8631 18.0411C17.8631 17.9326 17.8417 17.8252 17.7999 17.725C17.7582 17.6249 17.6971 17.534 17.62 17.4576C17.5436 17.3805 17.4527 17.3194 17.3526 17.2777C17.2525 17.236 17.145 17.2145 17.0365 17.2145C16.928 17.2145 16.8206 17.236 16.7205 17.2777C16.6203 17.3194 16.5294 17.3805 16.453 17.4576L13.2725 20.6463C12.8108 21.1086 12.5515 21.7352 12.5515 22.3886C12.5515 23.042 12.8108 23.6686 13.2725 24.1309Z" fill="white"/>
</svg>
