<svg width="32" height="32" viewBox="0 0 32 32" fill="none" xmlns="http://www.w3.org/2000/svg">
<path d="M9.65463 2.66675H7.1213C4.2013 2.66675 2.66797 4.20008 2.66797 7.10675V9.64008C2.66797 12.5467 4.2013 14.0801 7.10797 14.0801H9.6413C12.548 14.0801 14.0813 12.5467 14.0813 9.64008V7.10675C14.0946 4.20008 12.5613 2.66675 9.65463 2.66675Z" fill="white"/>
<path opacity="0.4" d="M24.8952 2.66675H22.3619C19.4552 2.66675 17.9219 4.20008 17.9219 7.10675V9.64008C17.9219 12.5467 19.4552 14.0801 22.3619 14.0801H24.8952C27.8019 14.0801 29.3352 12.5467 29.3352 9.64008V7.10675C29.3352 4.20008 27.8019 2.66675 24.8952 2.66675Z" fill="white"/>
<path d="M24.8952 17.9067H22.3619C19.4552 17.9067 17.9219 19.4401 17.9219 22.3467V24.8801C17.9219 27.7867 19.4552 29.3201 22.3619 29.3201H24.8952C27.8019 29.3201 29.3352 27.7867 29.3352 24.8801V22.3467C29.3352 19.4401 27.8019 17.9067 24.8952 17.9067Z" fill="white"/>
<path opacity="0.4" d="M9.65463 17.9067H7.1213C4.2013 17.9067 2.66797 19.4401 2.66797 22.3467V24.8801C2.66797 27.8001 4.2013 29.3334 7.10797 29.3334H9.6413C12.548 29.3334 14.0813 27.8001 14.0813 24.8934V22.3601C14.0946 19.4401 12.5613 17.9067 9.65463 17.9067Z" fill="white"/>
</svg>
