<svg width="32" height="32" viewBox="0 0 32 32" fill="none" xmlns="http://www.w3.org/2000/svg">
<path d="M9.33463 14.3332H6.66797C3.4413 14.3332 1.66797 12.5598 1.66797 9.33317V6.6665C1.66797 3.43984 3.4413 1.6665 6.66797 1.6665H9.33463C12.5613 1.6665 14.3346 3.43984 14.3346 6.6665V9.33317C14.3346 12.5598 12.5613 14.3332 9.33463 14.3332ZM6.66797 3.6665C4.5613 3.6665 3.66797 4.55984 3.66797 6.6665V9.33317C3.66797 11.4398 4.5613 12.3332 6.66797 12.3332H9.33463C11.4413 12.3332 12.3346 11.4398 12.3346 9.33317V6.6665C12.3346 4.55984 11.4413 3.6665 9.33463 3.6665H6.66797Z" fill="#737791"/>
<path d="M25.3346 14.3332H22.668C19.4413 14.3332 17.668 12.5598 17.668 9.33317V6.6665C17.668 3.43984 19.4413 1.6665 22.668 1.6665H25.3346C28.5613 1.6665 30.3346 3.43984 30.3346 6.6665V9.33317C30.3346 12.5598 28.5613 14.3332 25.3346 14.3332ZM22.668 3.6665C20.5613 3.6665 19.668 4.55984 19.668 6.6665V9.33317C19.668 11.4398 20.5613 12.3332 22.668 12.3332H25.3346C27.4413 12.3332 28.3346 11.4398 28.3346 9.33317V6.6665C28.3346 4.55984 27.4413 3.6665 25.3346 3.6665H22.668Z" fill="#737791"/>
<path d="M25.3346 30.3332H22.668C19.4413 30.3332 17.668 28.5598 17.668 25.3332V22.6665C17.668 19.4398 19.4413 17.6665 22.668 17.6665H25.3346C28.5613 17.6665 30.3346 19.4398 30.3346 22.6665V25.3332C30.3346 28.5598 28.5613 30.3332 25.3346 30.3332ZM22.668 19.6665C20.5613 19.6665 19.668 20.5598 19.668 22.6665V25.3332C19.668 27.4398 20.5613 28.3332 22.668 28.3332H25.3346C27.4413 28.3332 28.3346 27.4398 28.3346 25.3332V22.6665C28.3346 20.5598 27.4413 19.6665 25.3346 19.6665H22.668Z" fill="#737791"/>
<path d="M9.33463 30.3332H6.66797C3.4413 30.3332 1.66797 28.5598 1.66797 25.3332V22.6665C1.66797 19.4398 3.4413 17.6665 6.66797 17.6665H9.33463C12.5613 17.6665 14.3346 19.4398 14.3346 22.6665V25.3332C14.3346 28.5598 12.5613 30.3332 9.33463 30.3332ZM6.66797 19.6665C4.5613 19.6665 3.66797 20.5598 3.66797 22.6665V25.3332C3.66797 27.4398 4.5613 28.3332 6.66797 28.3332H9.33463C11.4413 28.3332 12.3346 27.4398 12.3346 25.3332V22.6665C12.3346 20.5598 11.4413 19.6665 9.33463 19.6665H6.66797Z" fill="#737791"/>
</svg>
