<svg width="10" height="8" viewBox="0 0 10 8" fill="none" xmlns="http://www.w3.org/2000/svg">
<path d="M9.0163 3.83317C8.17463 1.879 6.5913 0.666504 4.88296 0.666504C3.17463 0.666504 1.5913 1.879 0.749629 3.83317C0.726686 3.88574 0.714844 3.94248 0.714844 3.99984C0.714844 4.05719 0.726686 4.11393 0.749629 4.1665C1.5913 6.12067 3.17463 7.33317 4.88296 7.33317C6.5913 7.33317 8.17463 6.12067 9.0163 4.1665C9.03924 4.11393 9.05108 4.05719 9.05108 3.99984C9.05108 3.94248 9.03924 3.88574 9.0163 3.83317ZM4.88296 6.49984C3.56213 6.49984 2.31213 5.54567 1.5913 3.99984C2.31213 2.454 3.56213 1.49984 4.88296 1.49984C6.2038 1.49984 7.4538 2.454 8.17463 3.99984C7.4538 5.54567 6.2038 6.49984 4.88296 6.49984ZM4.88296 2.33317C4.55333 2.33317 4.23109 2.43092 3.95701 2.61405C3.68293 2.79719 3.46931 3.05749 3.34316 3.36203C3.21702 3.66657 3.18401 4.00169 3.24832 4.32499C3.31263 4.64829 3.47136 4.94526 3.70445 5.17835C3.93754 5.41144 4.23451 5.57017 4.55781 5.63448C4.88111 5.69879 5.21622 5.66578 5.52077 5.53964C5.82531 5.41349 6.08561 5.19987 6.26874 4.92579C6.45188 4.65171 6.54963 4.32947 6.54963 3.99984C6.54963 3.55781 6.37403 3.13389 6.06147 2.82133C5.74891 2.50877 5.32499 2.33317 4.88296 2.33317ZM4.88296 4.83317C4.71814 4.83317 4.55703 4.7843 4.41999 4.69273C4.28295 4.60116 4.17614 4.47101 4.11306 4.31874C4.04999 4.16647 4.03349 3.99891 4.06564 3.83726C4.0978 3.67561 4.17716 3.52713 4.29371 3.41058C4.41025 3.29404 4.55874 3.21467 4.72039 3.18252C4.88204 3.15036 5.04959 3.16686 5.20187 3.22994C5.35414 3.29301 5.48429 3.39982 5.57585 3.53686C5.66742 3.6739 5.7163 3.83502 5.7163 3.99984C5.7163 4.22085 5.6285 4.43281 5.47222 4.58909C5.31594 4.74537 5.10398 4.83317 4.88296 4.83317Z" fill="#31374A"/>
</svg>
