<svg width="33" height="32" viewBox="0 0 33 32" fill="none" xmlns="http://www.w3.org/2000/svg">
<path d="M27.0401 18.7467L25.5334 16.2401C25.2001 15.6934 24.9067 14.6401 24.9067 14.0001V11.5067C24.9067 6.66673 20.9734 2.7334 16.1467 2.7334C11.3067 2.74673 7.3734 6.66673 7.3734 11.5067V13.9867C7.3734 14.6267 7.08006 15.6801 6.76006 16.2267L5.2534 18.7334C4.68006 19.7067 4.54673 20.8134 4.90673 21.7734C5.26673 22.7467 6.08006 23.5201 7.14673 23.8667C8.58673 24.3467 10.0401 24.6934 11.5201 24.9467C11.6667 24.9734 11.8134 24.9867 11.9601 25.0134C12.1467 25.0401 12.3467 25.0667 12.5467 25.0934C12.8934 25.1467 13.2401 25.1867 13.6001 25.2134C14.4401 25.2934 15.2934 25.3334 16.1467 25.3334C16.9867 25.3334 17.8267 25.2934 18.6534 25.2134C18.9601 25.1867 19.2667 25.1601 19.5601 25.1201C19.8001 25.0934 20.0401 25.0667 20.2801 25.0267C20.4267 25.0134 20.5734 24.9867 20.7201 24.9601C22.2134 24.7201 23.6934 24.3467 25.1334 23.8667C26.1601 23.5201 26.9467 22.7467 27.3201 21.7601C27.6934 20.7601 27.5867 19.6667 27.0401 18.7467ZM17.1201 13.3334C17.1201 13.8934 16.6667 14.3467 16.1067 14.3467C15.5467 14.3467 15.0934 13.8934 15.0934 13.3334V9.20007C15.0934 8.64007 15.5467 8.18673 16.1067 8.18673C16.6667 8.18673 17.1201 8.64007 17.1201 9.20007V13.3334Z" fill="#0091BF"/>
<path d="M19.8927 26.6801C19.3327 28.2267 17.8527 29.3334 16.1194 29.3334C15.066 29.3334 14.026 28.9067 13.2927 28.1467C12.866 27.7467 12.546 27.2134 12.3594 26.6667C12.5327 26.6934 12.706 26.7067 12.8927 26.7334C13.1994 26.7734 13.5194 26.8134 13.8394 26.8401C14.5994 26.9067 15.3727 26.9467 16.146 26.9467C16.906 26.9467 17.666 26.9067 18.4127 26.8401C18.6927 26.8134 18.9727 26.8001 19.2394 26.7601C19.4527 26.7334 19.666 26.7067 19.8927 26.6801Z" fill="#0091BF"/>
</svg>
