<svg width="101" height="101" viewBox="0 0 101 101" fill="none" xmlns="http://www.w3.org/2000/svg">
<path d="M37.944 8.83325C27.0273 8.83325 18.1523 17.7083 18.1523 28.6249C18.1523 39.3333 26.5273 47.9999 37.444 48.3749C37.7773 48.3333 38.1107 48.3333 38.3607 48.3749C38.444 48.3749 38.4857 48.3749 38.569 48.3749C38.6107 48.3749 38.6107 48.3749 38.6523 48.3749C49.319 47.9999 57.694 39.3333 57.7357 28.6249C57.7357 17.7083 48.8607 8.83325 37.944 8.83325Z" fill="#176A45"/>
<path d="M59.1133 59.4583C47.4883 51.7083 28.5299 51.7083 16.8216 59.4583C11.5299 62.9999 8.61328 67.7916 8.61328 72.9166C8.61328 78.0416 11.5299 82.7916 16.7799 86.2916C22.6133 90.2083 30.2799 92.1666 37.9466 92.1666C45.6133 92.1666 53.2799 90.2083 59.1133 86.2916C64.3633 82.7499 67.2799 77.9999 67.2799 72.8333C67.2383 67.7083 64.3633 62.9583 59.1133 59.4583Z" fill="#176A45"/>
<path d="M83.7383 31.0834C84.4049 39.1668 78.6549 46.2501 70.6966 47.2084C70.655 47.2084 70.6549 47.2084 70.6133 47.2084H70.4883C70.2383 47.2084 69.9883 47.2084 69.7799 47.2918C65.7383 47.5001 62.0299 46.2084 59.2383 43.8334C63.5299 40.0001 65.9883 34.2501 65.4883 28.0001C65.1966 24.6251 64.0299 21.5418 62.2799 18.9168C63.8633 18.1251 65.6966 17.6251 67.5716 17.4584C75.7383 16.7501 83.0299 22.8334 83.7383 31.0834Z" fill="#176A45"/>
<path d="M92.0716 69.6251C91.7383 73.6668 89.1549 77.1668 84.8216 79.5418C80.6549 81.8334 75.4049 82.9168 70.1966 82.7918C73.1966 80.0834 74.9466 76.7084 75.2799 73.1251C75.6966 67.9584 73.2383 63.0001 68.3216 59.0418C65.53 56.8334 62.2799 55.0834 58.7383 53.7918C67.9466 51.1251 79.53 52.9168 86.6549 58.6668C90.4883 61.7501 92.4466 65.6251 92.0716 69.6251Z" fill="#176A45"/>
</svg>
