<svg width="25" height="24" viewBox="0 0 25 24" fill="none" xmlns="http://www.w3.org/2000/svg">
<path d="M23.7617 20.586L18.6847 15.509C19.7337 13.928 20.3477 12.035 20.3477 10C20.3477 4.486 15.8617 0 10.3477 0C4.83366 0 0.347656 4.486 0.347656 10C0.347656 15.514 4.83366 20 10.3477 20C12.3827 20 14.2757 19.386 15.8567 18.337L20.9337 23.414C21.7137 24.195 22.9817 24.195 23.7617 23.414C24.5427 22.633 24.5427 21.367 23.7617 20.586ZM3.34766 10C3.34766 6.14 6.48766 3 10.3477 3C14.2077 3 17.3477 6.14 17.3477 10C17.3477 13.86 14.2077 17 10.3477 17C6.48766 17 3.34766 13.86 3.34766 10Z" fill="#0091BF"/>
</svg>
